#!OML:ASF F:\VICON\USERDATA\INSTALL\rory3\rory3.ASF
:FULLY-SPECIFIED
:DEGREES
3319
root 17.094 18.0073 -7.32167 -1262.14 -43.5512 -171.97
lowerback 11.4829 2.03041 3.80764
upperback 0.761727 3.19772 2.0924
thorax -5.55038 1.4527 -0.454768
lowerneck -18.4514 -2.83909 -9.18956
upperneck 28.9885 -3.46681 4.75546
head 13.0241 -2.21064 2.77933
rclavicle -2.68359e-015 -6.95746e-015
rhumerus -30.4446 -0.66456 -83.2304
rradius 34.1125
rwrist 3.23429
rhand -17.1434 8.09771
rfingers 7.12502
rthumb 9.09698 -21.6861
lclavicle -2.68359e-015 -6.95746e-015
lhumerus -36.0477 -1.66205 85.3553
lradius 34.4147
lwrist -5.66196
lhand -17.3349 24.255
lfingers 7.12502
lthumb 8.91215 54.0468
rfemur -0.425545 -12.8399 25.8278
rtibia 20.9086
rfoot -13.9443 -25.6501
rtoes -4.33654
lfemur -25.1126 5.07907 -20.714
ltibia 17.1532
lfoot 0.110849 27.9952
ltoes -4.58388
3320
root 17.0499 18.0043 -7.3664 -1262.43 -44.3385 -171.714
lowerback 11.6041 2.1051 3.93466
upperback 0.73533 3.3206 2.06955
thorax -5.63349 1.50776 -0.574245
lowerneck -18.5797 -2.88046 -9.44671
upperneck 28.9887 -3.44548 4.87037
head 13.0582 -2.20675 2.87292
rclavicle -1.25657e-013 2.38542e-015
rhumerus -30.4543 -0.425914 -83.5347
rradius 34.2873
rwrist 3.39605
rhand -17.3613 8.117
rfingers 7.12502
rthumb 8.88668 -21.6759
lclavicle -1.25657e-013 2.38542e-015
lhumerus -35.9063 -0.815216 85.0493
lradius 33.7536
lwrist -6.62798
lhand -17.0769 24.1053
lfingers 7.12502
lthumb 9.16112 53.8863
rfemur -0.321737 -13.1182 25.8752
rtibia 21.4295
rfoot -14.1883 -25.6963
rtoes -5.0515
lfemur -24.5841 4.91953 -20.6842
ltibia 16.6367
lfoot -0.303397 28.3399
ltoes -1.40094
3321
root 17.0027 18.0045 -7.40489 -1262.87 -45.2043 -170.981
lowerback 11.5223 2.11112 4.4544
upperback 0.686025 3.39459 2.14448
thorax -5.61186 1.53032 -0.794656
lowerneck -18.6857 -2.89327 -9.45507
upperneck 28.9785 -3.43199 4.86895
head 13.0756 -2.19467 2.87661
rclavicle 5.73245e-014 -2.05742e-014
rhumerus -30.3647 -0.333141 -83.8481
rradius 34.3889
rwrist 3.39256
rhand -17.84 8.30232
rfingers 7.12502
rthumb 8.42474 -21.5096
lclavicle 5.73245e-014 -2.05742e-014
lhumerus -35.8153 -0.331536 84.8843
lradius 33.2554
lwrist -7.20234
lhand -16.9599 24.2929
lfingers 7.12502
lthumb 9.27401 54.0689
rfemur -0.311997 -13.2761 26.3327
rtibia 21.6152
rfoot -14.0792 -25.9778
rtoes -5.77415
lfemur -24.5845 4.91211 -20.4397
ltibia 16.6574
lfoot 0.00188952 28.3671
ltoes -0.236844
3322
root 16.9559 17.9947 -7.45093 -1263.21 -46.0818 -170.472
lowerback 11.4034 2.15163 4.67081
upperback 0.64739 3.47356 2.20321
thorax -5.57384 1.56463 -0.861613
lowerneck -18.3601 -2.85393 -8.88884
upperneck 28.7333 -3.47827 4.56665
head 12.8909 -2.18698 2.65162
rclavicle -8.44835e-016 3.67752e-015
rhumerus -30.3221 -0.109166 -84.1601
rradius 34.5394
rwrist 3.05183
rhand -17.7762 8.38863
rfingers 7.12502
rthumb 8.48636 -21.4208
lclavicle -8.44835e-016 3.67752e-015
lhumerus -36.2847 -1.3174 85.234
lradius 33.5822
lwrist -6.28982
lhand -16.9748 24.5108
lfingers 7.12502
lthumb 9.25964 54.2874
rfemur -0.204022 -13.451 26.616
rtibia 21.7872
rfoot -13.9485 -26.2367
rtoes -6.27167
lfemur -24.6038 5.78898 -20.6758
ltibia 16.7473
lfoot 1.02765 27.4103
ltoes -2.48915
3323
root 16.9108 17.9859 -7.50576 -1263.36 -46.9693 -170.386
lowerback 11.3663 2.24808 4.42949
upperback 0.632919 3.57349 2.21593
thorax -5.57945 1.62132 -0.728116
lowerneck -18.511 -2.89343 -9.3105
upperneck 28.8029 -3.45211 4.82541
head 12.9641 -2.18283 2.83097
rclavicle -1.91827e-014 -5.66536e-015
rhumerus -30.3463 0.374128 -84.5162
rradius 34.6991
rwrist 2.48951
rhand -17.722 8.32314
rfingers 7.12502
rthumb 8.53863 -21.4842
lclavicle -1.91827e-014 -5.66536e-015
lhumerus -36.3846 -1.31741 85.2306
lradius 33.3107
lwrist -6.4732
lhand -17.0543 24.2735
lfingers 7.12502
lthumb 9.18298 54.0535
rfemur 0.0294431 -13.6102 26.5936
rtibia 21.9803
rfoot -13.9867 -26.5335
rtoes -5.62435
lfemur -24.4751 7.06787 -21.2892
ltibia 16.8628
lfoot 1.12257 26.2349
ltoes -2.64334
3324
root 16.8613 17.9798 -7.54124 -1263.44 -47.6633 -170.321
lowerback 11.4426 2.37355 4.37697
upperback 0.599805 3.74045 2.16836
thorax -5.65043 1.70342 -0.77872
lowerneck -18.8347 -2.95423 -9.59893
upperneck 29.0806 -3.50209 5.08815
head 13.1636 -2.20248 2.97973
rclavicle -7.9663e-014 -2.44505e-014
rhumerus -30.3875 0.807493 -84.8789
rradius 34.8955
rwrist 2.18161
rhand -17.9341 8.25834
rfingers 7.12502
rthumb 8.33398 -21.5573
lclavicle -7.9663e-014 -2.44505e-014
lhumerus -36.0821 -0.18744 84.7789
lradius 32.5037
lwrist -7.83501
lhand -16.6682 24.2158
lfingers 7.12502
lthumb 9.55552 53.9791
rfemur 0.101217 -13.7842 26.5095
rtibia 22.2639
rfoot -13.5651 -26.7164
rtoes -6.23295
lfemur -24.368 7.68589 -21.7192
ltibia 16.9519
lfoot 1.18181 26.1945
ltoes -0.693237
3325
root 16.8062 17.9738 -7.57793 -1263.8 -48.2747 -170.042
lowerback 11.5686 2.48065 4.4838
upperback 0.622712 3.90163 2.17755
thorax -5.68365 1.77812 -0.858861
lowerneck -19.0396 -2.92386 -9.59485
upperneck 29.2717 -3.46778 5.16978
head 13.2846 -2.17652 3.02081
rclavicle -2.77056e-014 -6.95746e-016
rhumerus -30.354 1.32515 -85.1882
rradius 35.0975
rwrist 1.80006
rhand -18.4405 8.26945
rfingers 7.12502
rthumb 7.84522 -21.565
lclavicle -2.77056e-014 -6.95746e-016
lhumerus -36.1315 -0.0161378 84.7514
lradius 32.2977
lwrist -7.80129
lhand -16.6716 24.3488
lfingers 7.12502
lthumb 9.55218 54.1123
rfemur 0.335257 -14.0635 26.5346
rtibia 22.6284
rfoot -13.0752 -26.8486
rtoes -7.99055
lfemur -24.0901 8.24736 -21.9541
ltibia 16.973
lfoot 2.09309 26.2994
ltoes -0.721524
3326
root 16.7479 17.9704 -7.61941 -1264.08 -48.9634 -169.708
lowerback 11.5619 2.53349 4.59855
upperback 0.568895 3.99103 2.18436
thorax -5.72578 1.81804 -0.930497
lowerneck -18.9036 -2.8274 -9.38129
upperneck 29.1723 -3.36642 5.06724
head 13.1975 -2.11848 2.96002
rclavicle 3.0265e-014 2.68359e-014
rhumerus -30.4178 1.8608 -85.4856
rradius 35.4439
rwrist 1.16138
rhand -18.5511 8.16126
rfingers 7.12502
rthumb 7.73843 -21.6771
lclavicle 3.0265e-014 2.68359e-014
lhumerus -36.4492 -0.275777 84.9076
lradius 32.3666
lwrist -7.02329
lhand -17.4533 25.1094
lfingers 7.12502
lthumb 8.79793 54.906
rfemur 0.433535 -14.2884 26.6532
rtibia 23.0319
rfoot -13.02 -27.052
rtoes -8.22671
lfemur -24.02 9.08877 -22.2932
ltibia 16.9732
lfoot 3.76548 25.8051
ltoes -3.79225
3327
root 16.6851 17.9678 -7.65901 -1264.09 -49.7923 -169.62
lowerback 11.4863 2.53229 4.61668
upperback 0.440447 3.99588 2.07351
thorax -5.81005 1.81901 -1.05725
lowerneck -18.7223 -2.76017 -9.33473
upperneck 29.1685 -3.33954 5.1757
head 13.155 -2.09004 3.00025
rclavicle -5.89894e-014 -4.06515e-014
rhumerus -30.53 1.95272 -85.9187
rradius 35.5363
rwrist 1.42846
rhand -18.6944 8.43117
rfingers 7.12502
rthumb 7.60011 -21.4123
lclavicle -5.89894e-014 -4.06515e-014
lhumerus -36.7818 -0.355066 84.8034
lradius 32.3107
lwrist -6.70179
lhand -17.7196 25.6755
lfingers 7.12502
lthumb 8.54097 55.4827
rfemur 0.43266 -14.6327 26.5804
rtibia 23.4364
rfoot -13.1421 -27.167
rtoes -7.58973
lfemur -24.0974 9.71733 -22.7957
ltibia 17.0261
lfoot 5.30308 25.0494
ltoes -7.57344
3328
root 16.6217 17.9704 -7.69308 -1263.93 -50.6614 -169.888
lowerback 11.4322 2.56443 4.30916
upperback 0.414296 3.99847 1.98814
thorax -5.82192 1.83031 -0.974319
lowerneck -18.7249 -2.723 -9.28346
upperneck 29.3298 -3.32317 5.2019
head 13.2202 -2.07885 3.00776
rclavicle -6.56238e-014 5.96354e-016
rhumerus -30.3945 1.98293 -86.2675
rradius 35.3499
rwrist 1.97111
rhand -18.8383 8.76681
rfingers 7.12502
rthumb 7.46121 -21.0816
lclavicle -6.56238e-014 5.96354e-016
lhumerus -36.8657 -0.140192 84.6875
lradius 32.0044
lwrist -6.77322
lhand -17.5297 25.6357
lfingers 7.12502
lthumb 8.72423 55.4354
rfemur 0.472459 -15.0324 26.2162
rtibia 23.9507
rfoot -13.0473 -27.3181
rtoes -7.41367
lfemur -23.8894 9.74864 -23.2898
ltibia 16.9992
lfoot 5.33421 24.8185
ltoes -7.2289
3329
root 16.5599 17.9807 -7.72904 -1263.93 -51.5614 -170.066
lowerback 11.4242 2.6296 3.93893
upperback 0.483944 4.03597 2.02077
thorax -5.76989 1.86149 -0.737939
lowerneck -18.6918 -2.73705 -9.10789
upperneck 29.2504 -3.31325 4.96948
head 13.1719 -2.07951 2.88654
rclavicle -5.24295e-015 -1.35174e-014
rhumerus -30.1775 1.94918 -86.3842
rradius 35.4413
rwrist 1.80342
rhand -18.3314 8.56065
rfingers 7.12502
rthumb 7.95047 -21.2698
lclavicle -5.24295e-015 -1.35174e-014
lhumerus -36.7532 0.483171 84.5993
lradius 31.5245
lwrist -7.14859
lhand -17.4247 25.4591
lfingers 7.12502
lthumb 8.82553 55.2545
rfemur 0.518325 -15.238 25.9509
rtibia 24.5812
rfoot -12.8138 -27.7251
rtoes -7.49883
lfemur -23.4711 9.71159 -23.6336
ltibia 16.8572
lfoot 4.54115 24.5381
ltoes -4.82774
3330
root 16.4953 17.9876 -7.772 -1264.02 -52.4771 -170.131
lowerback 11.4172 2.67316 3.70828
upperback 0.527088 4.06206 1.9923
thorax -5.73321 1.88229 -0.642036
lowerneck -18.6881 -2.77699 -9.05954
upperneck 29.1563 -3.34758 4.90721
head 13.1333 -2.08977 2.84714
rclavicle -9.41742e-014 -1.96797e-014
rhumerus -30.0667 1.84444 -86.589
rradius 35.5737
rwrist 1.67842
rhand -17.8673 8.45791
rfingers 7.12502
rthumb 8.39838 -21.3551
lclavicle -9.41742e-014 -1.96797e-014
lhumerus -36.6777 1.12964 84.3841
lradius 31.0446
lwrist -7.58657
lhand -17.4658 25.3464
lfingers 7.12502
lthumb 8.78583 55.1435
rfemur 0.520965 -15.3217 25.8001
rtibia 25.2906
rfoot -12.8161 -28.2776
rtoes -6.99425
lfemur -23.0685 9.95695 -24.0158
ltibia 16.6663
lfoot 4.26107 23.5909
ltoes -4.8332
3331
root 16.4212 17.9931 -7.8097 -1263.93 -53.3112 -170.335
lowerback 11.2875 2.76221 3.56621
upperback 0.554641 4.15106 1.84596
thorax -5.62731 1.93316 -0.722089
lowerneck -18.7124 -2.81706 -9.04398
upperneck 29.1612 -3.42292 4.98051
head 13.1481 -2.10745 2.86153
rclavicle 6.98231e-015 -1.44119e-014
rhumerus -29.939 1.50004 -86.8277
rradius 35.5062
rwrist 1.98706
rhand -17.6292 8.69821
rfingers 7.12502
rthumb 8.62817 -21.1055
lclavicle 6.98231e-015 -1.44119e-014
lhumerus -36.5424 1.72716 84.0431
lradius 30.4806
lwrist -8.21299
lhand -17.3826 24.8451
lfingers 7.12502
lthumb 8.86618 54.6388
rfemur 0.428398 -15.5559 25.4986
rtibia 26.1187
rfoot -12.6536 -28.5895
rtoes -6.94591
lfemur -22.7354 10.3668 -24.5906
ltibia 16.4415
lfoot 4.50088 22.1831
ltoes -6.57509
3332
root 16.3436 18.0001 -7.83945 -1263.76 -54.1574 -170.604
lowerback 11.1727 2.81429 3.45764
upperback 0.557784 4.19717 1.68468
thorax -5.55352 1.96116 -0.830832
lowerneck -18.5426 -2.78927 -8.81732
upperneck 29.0395 -3.43039 4.88731
head 13.0551 -2.09423 2.78378
rclavicle 1.23495e-014 1.65985e-014
rhumerus -29.8422 1.13982 -87.0609
rradius 35.4691
rwrist 2.49706
rhand -17.3925 8.69359
rfingers 7.12502
rthumb 8.85658 -21.1005
lclavicle 1.23495e-014 1.65985e-014
lhumerus -36.498 2.31091 83.6557
lradius 29.9659
lwrist -8.81997
lhand -17.4047 24.2052
lfingers 7.12502
lthumb 8.84478 53.9999
rfemur 0.34915 -15.9652 25.0997
rtibia 26.8945
rfoot -12.0182 -28.7458
rtoes -7.78822
lfemur -22.4762 10.8644 -25.2362
ltibia 16.3028
lfoot 4.32509 20.4754
ltoes -7.34876
